# xmcd
#
# Track frame offsets: 
#        150
#        12567
#        25472
#        35413
#        48543
#        61185
#        75252
#        89319
#        101661
#        112577
#        122182
#        133286
#        144989
#        155869
#        169411
#        181828
#        194919
#        206060
#        215590
#        227706
#        240423
#        250515
#        261882
#        273662
#
# Disc length: 3786 seconds
#
# Revision: 0
# Processed by: cddbd v1.5.2PL0 Copyright (c) Steve Scherf et al.
# Submitted via: ExactAudioCopy v0.99pb4
#
DISCID=5d0ec818
DTITLE=Various Artist - New York Blues and R&B [CD2)
DYEAR=2008
DGENRE=Blues
TTITLE0=Champion Jack Dupree - Shim Sham Shimmy
TTITLE1=Clifford 'King' Solomon - But Officer
TTITLE2=Sammy Cotton - Give Me One More Drink
TTITLE3=Champion Jack Dupree - Highway Blues
TTITLE4=Champion Jack Dupree - Stumblin Block Blues
TTITLE5=Brownie McGee - Don't Dog Your Woman
TTITLE6=Champion Jack Dupree - Number Nine Blues
TTITLE7=Sammy Cotton - You The Kind Of Woman
TTITLE8=Champion Jack Dupree - Shake Baby Shake
TTITLE9=Jesse Stone - Runaway
TTITLE10=Jimmy Newsome - I'm Afraid I Love You
TTITLE11=Otis Hintin - Walking Down Hill
TTITLE12=Sonny Terry - I Love You Baby
TTITLE13=Brownie McGee and His Jook House Rockers - Miss Christine
TTITLE14=Allen Bunn - Too Much Competition
TTITLE15=Dinah Washington - Short John
TTITLE16=Big John Greer - Bottle It Up and Go
TTITLE17=Larry Dale - You Better Heed My Warning
TTITLE18=Bertrice Reading - I'm Alone
TTITLE19=The Jackson Brothers Orchestra - Flat Foot Boogie
TTITLE20=Big Red McHouston - I'm Tired
TTITLE21=Larry Dale - Please Tell Me
TTITLE22=Brownie McGee and His Jook House Rockers (w.The Conchords) - Bl
TTITLE22=uebird Bluebird
TTITLE23=The Jackson Brothers Orchestra - There's No Other Way
EXTD=
EXTT0=
EXTT1=
EXTT2=
EXTT3=
EXTT4=
EXTT5=
EXTT6=
EXTT7=
EXTT8=
EXTT9=
EXTT10=
EXTT11=
EXTT12=
EXTT13=
EXTT14=
EXTT15=
EXTT16=
EXTT17=
EXTT18=
EXTT19=
EXTT20=
EXTT21=
EXTT22=
EXTT23=
PLAYORDER=
